<svg width="41" height="41" viewBox="0 0 41 41" fill="none" xmlns="http://www.w3.org/2000/svg">
<path d="M20.4965 5.36245C14.2936 5.36245 8.40326 4.81066 6.15338 10.5848C5.22405 12.9697 5.35901 16.0669 5.35901 20.5017C5.35901 24.3933 5.2343 28.0508 6.15338 30.4169C8.39813 36.1945 14.3363 35.641 20.4931 35.641C26.4331 35.641 32.5574 36.2594 34.8346 30.4169C35.7656 28.0081 35.629 24.957 35.629 20.5017C35.629 14.5875 35.9553 10.7693 33.087 7.90274C30.1828 4.99857 26.2554 5.36245 20.4897 5.36245H20.4965ZM19.1401 8.09066C32.079 8.07016 33.7259 6.63174 32.817 26.6141C32.4942 33.6815 27.113 32.9059 20.4983 32.9059C8.43743 32.9059 8.09063 32.5608 8.09063 20.4949C8.09063 8.28882 9.0473 8.09749 19.1401 8.08724V8.09066ZM28.577 10.6036C27.5742 10.6036 26.7611 11.4168 26.7611 12.4196C26.7611 13.4224 27.5742 14.2355 28.577 14.2355C29.5798 14.2355 30.393 13.4224 30.393 12.4196C30.393 11.4168 29.5798 10.6036 28.577 10.6036ZM20.4965 12.7271C16.2036 12.7271 12.7236 16.2087 12.7236 20.5017C12.7236 24.7948 16.2036 28.2746 20.4965 28.2746C24.7896 28.2746 28.2678 24.7948 28.2678 20.5017C28.2678 16.2087 24.7896 12.7271 20.4965 12.7271ZM20.4965 15.4553C27.1676 15.4553 27.1761 25.5481 20.4965 25.5481C13.8272 25.5481 13.817 15.4553 20.4965 15.4553Z" fill="#04BF55"/>
</svg>
