<svg width="30" height="29" viewBox="0 0 30 29" fill="none" xmlns="http://www.w3.org/2000/svg">
<path d="M14.9975 3.79296C10.4588 3.79296 6.14876 3.40267 4.50251 7.48683C3.82251 9.17367 3.92126 11.3644 3.92126 14.5012C3.92126 17.2538 3.83001 19.8408 4.50251 21.5144C6.14501 25.601 10.49 25.2095 14.995 25.2095C19.3413 25.2095 23.8225 25.6469 25.4888 21.5144C26.17 19.8106 26.07 17.6525 26.07 14.5012C26.07 10.318 26.3088 7.61733 24.21 5.58975C22.085 3.53558 19.2113 3.79296 14.9925 3.79296H14.9975ZM14.005 5.72267C23.4725 5.70817 24.6775 4.69075 24.0125 18.8246C23.7763 23.8235 19.8388 23.2749 14.9988 23.2749C6.17376 23.2749 5.92001 23.0308 5.92001 14.4964C5.92001 5.86283 6.62001 5.7275 14.005 5.72025V5.72267ZM20.91 7.50012C20.1763 7.50012 19.5813 8.07529 19.5813 8.78458C19.5813 9.49387 20.1763 10.069 20.91 10.069C21.6438 10.069 22.2388 9.49387 22.2388 8.78458C22.2388 8.07529 21.6438 7.50012 20.91 7.50012ZM14.9975 9.00208C11.8563 9.00208 9.31001 11.4647 9.31001 14.5012C9.31001 17.5378 11.8563 19.9991 14.9975 19.9991C18.1388 19.9991 20.6838 17.5378 20.6838 14.5012C20.6838 11.4647 18.1388 9.00208 14.9975 9.00208ZM14.9975 10.9318C19.8788 10.9318 19.885 18.0706 14.9975 18.0706C10.1175 18.0706 10.11 10.9318 14.9975 10.9318Z" fill="white"/>
</svg>
