<svg width="900" height="600" viewBox="0 0 900 600" fill="none" xmlns="http://www.w3.org/2000/svg">
<g clip-path="url(#clip0_261_129)">
<path d="M0 381L21.5 386.7C43 392.3 86 403.7 128.8 414.5C171.7 425.3 214.3 435.7 257.2 432.8C300 430 343 414 385.8 406C428.7 398 471.3 398 514.2 405.3C557 412.7 600 427.3 642.8 435.2C685.7 443 728.3 444 771.2 443.2C814 442.3 857 439.7 878.5 438.3L900 437V601H878.5C857 601 814 601 771.2 601C728.3 601 685.7 601 642.8 601C600 601 557 601 514.2 601C471.3 601 428.7 601 385.8 601C343 601 300 601 257.2 601C214.3 601 171.7 601 128.8 601C86 601 43 601 21.5 601H0V381Z" fill="#22007C"/>
<path d="M0 480L21.5 475.3C43 470.7 86 461.3 128.8 458.7C171.7 456 214.3 460 257.2 459.8C300 459.7 343 455.3 385.8 457.5C428.7 459.7 471.3 468.3 514.2 472.7C557 477 600 477 642.8 466C685.7 455 728.3 433 771.2 422.5C814 412 857 413 878.5 413.5L900 414V601H878.5C857 601 814 601 771.2 601C728.3 601 685.7 601 642.8 601C600 601 557 601 514.2 601C471.3 601 428.7 601 385.8 601C343 601 300 601 257.2 601C214.3 601 171.7 601 128.8 601C86 601 43 601 21.5 601H0V480Z" fill="#2B0B82"/>
<path d="M0 502L21.5 503.2C43 504.3 86 506.7 128.8 497C171.7 487.3 214.3 465.7 257.2 463.3C300 461 343 478 385.8 483.8C428.7 489.7 471.3 484.3 514.2 486.5C557 488.7 600 498.3 642.8 496.5C685.7 494.7 728.3 481.3 771.2 477.3C814 473.3 857 478.7 878.5 481.3L900 484V601H878.5C857 601 814 601 771.2 601C728.3 601 685.7 601 642.8 601C600 601 557 601 514.2 601C471.3 601 428.7 601 385.8 601C343 601 300 601 257.2 601C214.3 601 171.7 601 128.8 601C86 601 43 601 21.5 601H0V502Z" fill="#341589"/>
<path d="M0 527L21.5 522.7C43 518.3 86 509.7 128.8 503.3C171.7 497 214.3 493 257.2 498C300 503 343 517 385.8 524.8C428.7 532.7 471.3 534.3 514.2 535.5C557 536.7 600 537.3 642.8 530.2C685.7 523 728.3 508 771.2 503.2C814 498.3 857 503.7 878.5 506.3L900 509V601H878.5C857 601 814 601 771.2 601C728.3 601 685.7 601 642.8 601C600 601 557 601 514.2 601C471.3 601 428.7 601 385.8 601C343 601 300 601 257.2 601C214.3 601 171.7 601 128.8 601C86 601 43 601 21.5 601H0V527Z" fill="#3C1E90"/>
<path d="M0 526L21.5 530.7C43 535.3 86 544.7 128.8 549.8C171.7 555 214.3 556 257.2 553.2C300 550.3 343 543.7 385.8 542.7C428.7 541.7 471.3 546.3 514.2 546C557 545.7 600 540.3 642.8 540C685.7 539.7 728.3 544.3 771.2 542.5C814 540.7 857 532.3 878.5 528.2L900 524V601H878.5C857 601 814 601 771.2 601C728.3 601 685.7 601 642.8 601C600 601 557 601 514.2 601C471.3 601 428.7 601 385.8 601C343 601 300 601 257.2 601C214.3 601 171.7 601 128.8 601C86 601 43 601 21.5 601H0V526Z" fill="#442797"/>
</g>
<defs>
<clipPath id="clip0_261_129">
<rect width="900" height="600" fill="white"/>
</clipPath>
</defs>
</svg>
