<svg width="30" height="30" viewBox="0 0 30 30" fill="none" xmlns="http://www.w3.org/2000/svg">
<path fill-rule="evenodd" clip-rule="evenodd" d="M3.04254 27.0644L4.72628 20.9175C3.68754 19.1188 3.14129 17.0775 3.14192 14.9869C3.14504 8.44626 8.46756 3.12503 15.0088 3.12503C18.1832 3.12628 21.1619 4.3619 23.4025 6.60379C25.6426 8.84629 26.8763 11.8263 26.875 14.9963C26.8726 21.5369 21.5488 26.8588 15.0088 26.8588H15.0038C13.0182 26.8581 11.0663 26.36 9.33316 25.4144L3.04254 27.0644Z" fill="#02010A"/>
<path fill-rule="evenodd" clip-rule="evenodd" d="M3.04245 27.3769C2.95995 27.3769 2.87995 27.3444 2.82058 27.2844C2.74245 27.205 2.71183 27.0894 2.7412 26.9825L4.39058 20.96C3.36808 19.1437 2.8287 17.0813 2.82995 14.9875C2.83245 8.27377 8.29557 2.8125 15.0087 2.8125C18.2649 2.81375 21.3243 4.08188 23.6237 6.38311C25.9231 8.685 27.1887 11.7437 27.1875 14.9963C27.1849 21.7094 21.7212 27.1712 15.0087 27.1712C13.0156 27.1706 11.0437 26.6788 9.29368 25.7481L3.12183 27.3662C3.09558 27.3737 3.06933 27.3769 3.04245 27.3769Z" fill="#140152"/>
<path fill-rule="evenodd" clip-rule="evenodd" d="M15.0087 3.12497C18.1831 3.12622 21.1619 4.36184 23.4025 6.60371C25.6425 8.84621 26.8763 11.8262 26.875 14.9962C26.8725 21.5368 21.5487 26.8587 15.0087 26.8587H15.0038C13.0181 26.8581 11.0663 26.36 9.33311 25.4143L3.04249 27.0644L4.72623 20.9175C3.68749 19.1187 3.14125 17.0775 3.14187 14.9868C3.145 8.44623 8.46752 3.12497 15.0087 3.12497ZM15.0087 2.49997C8.12373 2.49997 2.51999 8.10123 2.51687 14.9868C2.51624 17.0912 3.0475 19.165 4.05499 21.0006L2.43937 26.9C2.38062 27.1156 2.44062 27.3456 2.59812 27.5043C2.71687 27.6243 2.87749 27.69 3.04249 27.69C3.09562 27.69 3.14875 27.6831 3.20125 27.6693L9.25563 26.0818C11.0231 26.9994 13.0044 27.4837 15.0038 27.4843C21.8937 27.4843 27.4975 21.8825 27.5006 14.9969C27.5019 11.66 26.2037 8.52249 23.8456 6.16248C21.4862 3.80184 18.3481 2.50122 15.0087 2.49997Z" fill="#FFFBFE"/>
<path fill-rule="evenodd" clip-rule="evenodd" d="M21.985 8.02003C20.1225 6.15628 17.6469 5.12939 15.0119 5.12878C9.57189 5.12878 5.1475 9.5513 5.14502 14.9875C5.14436 16.8507 5.66561 18.6644 6.65313 20.2351L6.88811 20.6082L5.89127 24.2463L9.6244 23.2675L9.985 23.4813C11.4987 24.38 13.235 24.855 15.005 24.8557H15.0087C20.445 24.8557 24.8694 20.4325 24.8712 14.9956C24.8719 12.3613 23.8475 9.88378 21.985 8.02003Z" fill="#F7F7F2"/>
<path fill-rule="evenodd" clip-rule="evenodd" d="M12.0425 10.0281C11.8206 9.53441 11.5869 9.52443 11.375 9.51566C11.2018 9.50816 11.0044 9.50877 10.8069 9.50877C10.6093 9.50877 10.2881 9.58316 10.0162 9.88002C9.74435 10.1769 8.97809 10.8938 8.97809 12.3525C8.97809 13.8113 10.0406 15.2213 10.1887 15.4188C10.3369 15.6163 12.24 18.7056 15.2537 19.8944C17.7581 20.8819 18.2681 20.6856 18.8119 20.6363C19.3556 20.5869 20.5662 19.9194 20.8131 19.2269C21.06 18.5344 21.06 17.9413 20.9862 17.8176C20.9119 17.6938 20.7144 17.62 20.4181 17.4713C20.1219 17.3226 18.6637 16.6056 18.3919 16.5069C18.12 16.4082 17.9225 16.3588 17.7244 16.6557C17.5269 16.9519 16.9587 17.62 16.7856 17.8176C16.6125 18.0156 16.4394 18.0407 16.1431 17.8919C15.8469 17.7432 14.8918 17.4306 13.7587 16.4207C12.8775 15.6351 12.2825 14.6644 12.1093 14.3676C11.9362 14.0713 12.0906 13.9107 12.2394 13.7625C12.3725 13.6294 12.5356 13.4163 12.6844 13.2432C12.8325 13.0701 12.8818 12.9463 12.9806 12.7488C13.0794 12.5507 13.03 12.3775 12.9556 12.2294C12.8825 12.0807 12.3062 10.6144 12.0425 10.0281Z" fill="#140152"/>
</svg>
