<svg width="403" height="403" viewBox="0 0 403 403" fill="none" xmlns="http://www.w3.org/2000/svg">
<path d="M292.28 29.9026C248.756 32.1594 235.215 69.993 229.774 88.257C220.868 118.16 214.71 132.926 192.328 134.425C168.954 135.996 160.555 115.951 135.908 95.4304C107.238 71.5325 60.7805 73.1526 32.24 128.364C0.265978 190.264 36.0766 252.818 96.4701 298.913C130.991 325.269 165.689 330.347 216.685 319.474C305.587 300.509 362.16 230.145 375.943 148.949C383.777 102.87 364.006 26.1789 292.28 29.9026Z" fill="#04BF55"/>
<path opacity="0.7" d="M292.28 29.9026C248.756 32.1594 235.215 69.993 229.774 88.257C220.868 118.16 214.71 132.926 192.328 134.425C168.954 135.996 160.555 115.951 135.908 95.4304C107.238 71.5325 60.7805 73.1526 32.24 128.364C0.265978 190.264 36.0766 252.818 96.4701 298.913C130.991 325.269 165.689 330.347 216.685 319.474C305.587 300.509 362.16 230.145 375.943 148.949C383.777 102.87 364.006 26.1789 292.28 29.9026Z" fill="white"/>
<g filter="url(#filter0_d_657_513)">
<path d="M150.746 321.546H112.26V374.081H150.746V321.546Z" fill="#04BF55"/>
<path opacity="0.4" d="M150.746 321.546H112.26V374.081H150.746V321.546Z" fill="black"/>
<path d="M217.668 248.578H179.182V374.081H217.668V248.578Z" fill="#04BF55"/>
<path opacity="0.3" d="M217.668 248.578H179.182V374.081H217.668V248.578Z" fill="black"/>
<path d="M286.243 219.45H247.756V374.081H286.243V219.45Z" fill="#04BF55"/>
<path opacity="0.2" d="M286.243 219.45H247.756V374.081H286.243V219.45Z" fill="black"/>
<path d="M354.817 168.518H316.331V374.081H354.817V168.518Z" fill="#04BF55"/>
<path opacity="0.1" d="M354.817 168.518H316.331V374.081H354.817V168.518Z" fill="black"/>
</g>
<path d="M139.212 78.0853C139.261 77.7354 139.285 77.3826 139.285 77.0294C139.26 75.0364 138.497 73.1234 137.144 71.6598C135.791 70.1962 133.944 69.2858 131.959 69.1044C129.974 68.9231 127.992 69.4836 126.396 70.6778C124.801 71.872 123.704 73.6151 123.318 75.5706H123.173C121.995 75.5678 120.837 75.884 119.824 76.4857C118.811 77.0874 117.98 77.952 117.418 78.988C116.432 78.4423 115.321 78.1644 114.194 78.182C112.454 78.1905 110.789 78.89 109.564 80.1264C108.34 81.3629 107.657 83.035 107.665 84.7751C107.674 86.5151 108.373 88.1805 109.61 89.4048C110.846 90.6292 112.519 91.3122 114.259 91.3037L139.043 91.1828C140.745 91.1464 142.366 90.4498 143.564 89.2401C144.763 88.0304 145.443 86.4024 145.463 84.7001C145.483 82.9977 144.84 81.3542 143.671 80.1169C142.502 78.8796 140.897 78.1453 139.196 78.0692L139.212 78.0853Z" fill="white"/>
<path d="M130.105 69.0097C128.434 69.2349 126.876 69.978 125.65 71.1347C124.424 72.2913 123.592 73.8032 123.27 75.4577H123.125C121.945 75.4604 120.787 75.7826 119.775 76.3899C118.764 76.9973 117.935 77.8672 117.378 78.9074C116.389 78.3695 115.279 78.0922 114.154 78.1014" stroke="#263238" stroke-width="0.652057" stroke-linecap="round" stroke-linejoin="round"/>
<path d="M139.18 76.0139C138.939 74.0509 137.984 72.2451 136.498 70.9402C135.012 69.6353 133.098 68.9224 131.12 68.9372" stroke="#263238" stroke-width="0.652057" stroke-linecap="round" stroke-linejoin="round"/>
<path d="M139.019 91.1264C140.721 91.09 142.342 90.3934 143.54 89.1837C144.738 87.974 145.419 86.346 145.439 84.6436C145.459 82.9412 144.816 81.2978 143.647 80.0605C142.477 78.8231 140.873 78.0889 139.172 78.0127" stroke="#263238" stroke-width="0.652057" stroke-linecap="round" stroke-linejoin="round"/>
<path d="M135.65 91.1425H137.979" stroke="#263238" stroke-width="0.652057" stroke-linecap="round" stroke-linejoin="round"/>
<path d="M113.033 78.2223C111.426 78.5242 109.988 79.4151 109.003 80.7207C108.017 82.0262 107.554 83.6526 107.705 85.2815C107.855 86.9104 108.607 88.4247 109.815 89.528C111.023 90.6314 112.599 91.2444 114.234 91.2473L134.521 91.1505" stroke="#263238" stroke-width="0.652057" stroke-linecap="round" stroke-linejoin="round"/>
<path d="M304.837 39.494C304.888 39.1011 304.915 38.7054 304.918 38.3092C304.908 36.0727 304.065 33.9203 302.552 32.2724C301.04 30.6246 298.968 29.5998 296.741 29.3983C294.513 29.1969 292.291 29.8332 290.507 31.1829C288.724 32.5326 287.508 34.4988 287.097 36.6972H286.936C285.614 36.6977 284.316 37.056 283.181 37.7343C282.045 38.4126 281.115 39.3855 280.488 40.5499C279.397 39.9412 278.167 39.6247 276.917 39.631C275.017 39.7019 273.219 40.5087 271.903 41.8809C270.587 43.2531 269.856 45.0833 269.864 46.9847C269.872 48.8861 270.62 50.7098 271.948 52.0704C273.276 53.431 275.081 54.2219 276.982 54.276L304.668 54.1471C306.611 54.1695 308.484 53.4192 309.873 52.061C311.263 50.7029 312.057 48.8483 312.079 46.9052C312.102 44.9621 311.351 43.0896 309.993 41.6997C308.635 40.3099 306.78 39.5164 304.837 39.494Z" fill="white"/>
<path d="M294.714 29.4029C292.842 29.6582 291.099 30.4964 289.73 31.7984C288.361 33.1004 287.437 34.8003 287.089 36.6569H286.936C285.614 36.6574 284.316 37.0157 283.181 37.694C282.046 38.3723 281.115 39.3452 280.488 40.5096C279.396 39.9032 278.167 39.5869 276.917 39.5907" stroke="#263238" stroke-width="0.75" stroke-linecap="round" stroke-linejoin="round"/>
<path d="M304.837 37.213C304.57 35.0277 303.51 33.0165 301.858 31.5618C300.205 30.107 298.076 29.31 295.875 29.3223" stroke="#263238" stroke-width="0.75" stroke-linecap="round" stroke-linejoin="round"/>
<path d="M304.668 54.0826C306.503 53.9549 308.222 53.1411 309.484 51.8033C310.745 50.4654 311.457 48.7016 311.478 46.8627C311.498 45.0237 310.825 43.2446 309.593 41.8792C308.361 40.5138 306.661 39.6622 304.829 39.494" stroke="#263238" stroke-width="0.75" stroke-linecap="round" stroke-linejoin="round"/>
<path d="M300.896 54.0987H303.499" stroke="#263238" stroke-width="0.75" stroke-linecap="round" stroke-linejoin="round"/>
<path d="M275.652 39.6874C273.865 40.0274 272.268 41.0211 271.173 42.4746C270.079 43.9281 269.565 45.7372 269.732 47.5491C269.899 49.3609 270.735 51.0456 272.077 52.2744C273.419 53.5032 275.17 54.1881 276.99 54.1954L299.631 54.0907" stroke="#263238" stroke-width="0.75" stroke-linecap="round" stroke-linejoin="round"/>
<path d="M247.877 54.5662C248.899 51.6488 250.802 49.121 253.323 47.332C255.844 45.5431 258.859 44.5814 261.95 44.5799C263.205 44.5791 264.456 44.7334 265.674 45.0393C266.883 43.4628 268.537 42.2834 270.421 41.6523C272.305 41.0212 274.335 40.9672 276.25 41.4971C278.166 42.027 279.879 43.1167 281.171 44.6266C282.463 46.1365 283.275 47.9978 283.502 49.972C286.55 50.4576 289.303 52.0725 291.214 54.4954C293.125 56.9183 294.054 59.9718 293.816 63.0485C293.579 66.1252 292.192 68.9998 289.931 71.1004C287.671 73.2011 284.702 74.3739 281.616 74.3857L249.376 74.4341C246.86 74.4348 244.436 73.4844 242.59 71.7734C240.744 70.0624 239.613 67.7171 239.424 65.2075C239.234 62.6979 240 60.2094 241.567 58.2405C243.135 56.2716 245.389 54.9678 247.877 54.5904V54.5662Z" fill="white"/>
<path d="M283.486 50.1816C286.534 50.6673 289.288 52.2828 291.199 54.7066C293.11 57.1304 294.038 60.1848 293.8 63.2621C293.561 66.3394 292.172 69.214 289.91 71.314C287.648 73.414 284.679 74.5855 281.592 74.5953" stroke="#263238" stroke-width="0.75" stroke-linecap="round" stroke-linejoin="round"/>
<path d="M261.95 44.8136C263.205 44.8135 264.456 44.9678 265.674 45.273C266.786 43.8247 268.274 42.7094 269.976 42.0485C271.679 41.3876 273.529 41.2065 275.328 41.5248C277.126 41.8432 278.802 42.6489 280.174 43.8541C281.545 45.0593 282.56 46.6179 283.107 48.36" stroke="#263238" stroke-width="0.75" stroke-linecap="round" stroke-linejoin="round"/>
<path d="M239.809 61.7235C240.367 59.9288 241.418 58.3275 242.844 57.103C244.269 55.8785 246.011 55.0803 247.869 54.7999C248.771 52.2282 250.359 49.9522 252.461 48.2188C254.564 46.4854 257.101 45.3607 259.798 44.9667" stroke="#263238" stroke-width="0.75" stroke-linecap="round" stroke-linejoin="round"/>
<path d="M274.653 74.6034H249.36C246.724 74.6055 244.195 73.5638 242.325 71.706C240.455 69.8481 239.397 67.3254 239.382 64.6896" stroke="#263238" stroke-width="0.75" stroke-linecap="round" stroke-linejoin="round"/>
<path d="M278.546 74.5953H277.312" stroke="#263238" stroke-width="0.75" stroke-linecap="round" stroke-linejoin="round"/>
<path d="M380.875 107.053L366.448 73.4588L332.854 87.8782L337.738 99.2508L351.924 93.1655L327.607 154.075L291.49 199.138L236.521 216.782L235.997 216.951L185.436 243.823L151.085 256.872L140.784 309.996H114.734L93.093 360.878H25.8484V373.259H101.274L122.923 322.376H150.988L161.917 265.988L190.554 255.115L240.825 228.396L298.816 209.786L338.415 160.378L363.417 97.7517L369.503 111.929L380.875 107.053Z" fill="#04BF55"/>
<path d="M188.604 234.643L188.378 238.366C188.378 238.366 185.154 240.583 182.631 242.139C181.019 243.13 179.553 243.38 179.746 244.162C180.23 246.16 187.177 243.904 190.651 243.065C194.125 242.227 198.711 242.259 195.35 239.092C194.989 238.705 194.653 238.296 194.343 237.867L194.447 234.07L188.604 234.643Z" fill="#263238" stroke="#263238" stroke-linecap="round" stroke-linejoin="round"/>
<path d="M233.24 206.199C233.24 206.199 234.215 210.1 234.046 211.414C233.828 212.752 233.869 214.121 234.167 215.444C234.836 217.693 236.255 216.798 239.35 216.04C242.638 215.234 245.322 215.009 245.064 213.485C244.806 211.962 240.688 211.664 239.833 210.471C238.979 209.278 238.479 204.893 238.479 204.893L233.24 206.199Z" fill="#263238" stroke="#263238" stroke-linecap="round" stroke-linejoin="round"/>
<path d="M200.452 176.998C200.452 176.998 190.071 198.905 188.539 208.899C187.008 218.893 187.927 236.222 187.927 236.222C187.927 236.222 190.619 237.834 195.181 236.287C195.181 236.287 197.148 211.188 198.631 208.287C200.114 205.385 211.261 189.507 213.3 188.588C215.339 187.669 226.365 195.173 227.945 197.897C229.525 200.621 233.264 210.189 233.264 210.189C233.264 210.189 236.158 211.607 239.882 208.295C239.882 208.295 239.164 196.019 235.723 191.199C232.281 186.379 221.497 174.563 221.497 174.563L200.452 176.998Z" fill="#999999" stroke="#263238" stroke-linecap="round" stroke-linejoin="round"/>
<path opacity="0.3" d="M235.126 198.566C231.249 199.791 227.711 195.133 225.656 193.085C223.6 191.038 219.707 184.913 217.362 186.299C215.017 187.685 213.332 187.306 209.302 186.404C205.272 185.501 199.461 204.136 196.511 206.554C193.561 208.972 194.842 207.255 193.238 221.666C192.11 231.806 189.37 234.328 187.846 234.933C187.846 235.739 187.911 236.255 187.911 236.255C187.911 236.255 190.603 237.867 195.165 236.319C195.165 236.319 197.131 211.22 198.614 208.319C200.098 205.417 211.244 189.539 213.284 188.62C215.323 187.701 226.349 195.205 227.929 197.929C229.508 200.654 233.248 210.221 233.248 210.221C233.248 210.221 236.142 211.639 239.866 208.327C239.592 204.201 238.92 200.112 237.859 196.116C237.642 196.719 237.278 197.258 236.801 197.686C236.325 198.113 235.749 198.416 235.126 198.566Z" fill="black"/>
<path d="M190.216 207.779C189.964 209.267 190.092 210.794 190.587 212.22" stroke="#263238" stroke-width="0.75" stroke-linecap="round" stroke-linejoin="round"/>
<path d="M229.557 194.544C229.557 194.544 227.066 195.141 228.67 199.38" stroke="#263238" stroke-width="0.75" stroke-linecap="round" stroke-linejoin="round"/>
<path d="M204.998 183.534C204.998 183.534 212.494 186.379 211.752 187.411C211.011 188.443 207.263 187.79 207.263 187.79" stroke="#263238" stroke-width="0.75" stroke-linecap="round" stroke-linejoin="round"/>
<path d="M215.363 185.968C216.956 185.147 218.418 184.093 219.699 182.841" stroke="#263238" stroke-width="0.75" stroke-linecap="round" stroke-linejoin="round"/>
<path d="M236.343 196.003C236.343 196.003 234.667 197.825 232.998 197.381" stroke="#263238" stroke-width="0.75" stroke-linecap="round" stroke-linejoin="round"/>
<path d="M196.454 208.996C196.454 208.996 193.722 209.552 193.392 210.374" stroke="#263238" stroke-width="0.75" stroke-linecap="round" stroke-linejoin="round"/>
<path d="M183.478 153.761L179.166 157.557C176.802 158.292 174.592 159.453 172.645 160.982C168.921 163.723 159.241 171.049 159.241 171.049C158.089 171.426 156.905 171.696 155.703 171.855C154.091 172.033 152.358 173.242 152.705 173.79C153.051 174.338 154.542 173.201 154.905 173.258C155.268 173.314 154.567 176.804 155.042 177.61C155.518 178.416 156.251 177.312 156.251 177.312C156.378 177.416 156.527 177.49 156.687 177.53C156.846 177.569 157.012 177.573 157.173 177.541C157.334 177.508 157.486 177.441 157.618 177.342C157.75 177.244 157.858 177.118 157.936 176.973C157.936 176.973 159.048 177.199 159.241 176.232C159.241 176.232 160.047 176.603 160.297 175.627C160.443 175.046 160.635 174.478 160.869 173.927C160.869 173.927 178.65 165.867 181.253 162.602C181.253 162.602 183.526 161.796 183.913 160.757L187.298 158.089L183.478 153.761Z" fill="white" stroke="#263238" stroke-linecap="round" stroke-linejoin="round"/>
<path d="M155.461 176.038C155.461 176.038 156.146 175.942 156.267 176.264C156.388 176.587 157.073 175.716 157.452 175.901C157.831 176.087 158.347 174.91 158.846 175.208" fill="white"/>
<path d="M155.461 176.038C155.461 176.038 156.146 175.942 156.267 176.264C156.388 176.587 157.073 175.716 157.452 175.901C157.831 176.087 158.347 174.91 158.846 175.208" stroke="#263238" stroke-width="0.75" stroke-linecap="round" stroke-linejoin="round"/>
<path d="M247.047 137.02C245.725 138.31 238.705 155.091 233.78 153.462C230.414 152.291 227.138 150.874 223.979 149.223L226.494 142.702L234.062 146.732C234.062 146.732 234.207 144.693 243.968 135.956C243.968 135.956 242.815 132.732 242.969 131.418C243.122 130.105 242.791 128.71 243.541 128.734C244.29 128.759 244.097 131.039 244.097 131.039L244.266 131.741C244.266 131.741 246.007 131.894 246.684 130.878C247.194 130.204 247.531 129.415 247.668 128.581C247.78 127.961 248.417 126.856 248.723 127.896C248.723 127.896 249.529 127.541 249.529 128.702C249.544 129.326 249.52 129.951 249.457 130.572C249.457 130.572 250.206 129.065 250.489 129.371C250.771 129.677 249.924 131.418 249.924 131.418C249.924 131.418 251.021 130.459 251.117 130.862C251.214 131.265 249.997 132.353 249.739 133.054C249.114 134.542 248.199 135.89 247.047 137.02Z" fill="white" stroke="#263238" stroke-linecap="round" stroke-linejoin="round"/>
<path d="M206.005 139.156C202.669 139.793 192.118 141.969 193.158 145.676C194.133 149.134 199.525 165.697 198.405 175.498C198.374 175.759 198.396 176.024 198.472 176.275C198.548 176.527 198.675 176.76 198.846 176.959C199.016 177.159 199.226 177.322 199.462 177.437C199.698 177.551 199.956 177.616 200.218 177.626C207.432 177.901 214.649 177.147 221.65 175.386C222.668 175.131 223.555 174.506 224.138 173.633C224.72 172.759 224.957 171.701 224.801 170.662C224.044 165.697 222.94 156.654 223.649 149.569C224.713 139.277 224.14 135.706 206.005 139.156Z" fill="#04BF55" stroke="#263238" stroke-linecap="round" stroke-linejoin="round"/>
<path d="M217.41 141.606C216.495 142.319 215.883 143.351 215.696 144.496C215.51 145.64 215.762 146.813 216.403 147.78" stroke="#263238" stroke-width="0.75" stroke-linecap="round" stroke-linejoin="round"/>
<path d="M196.664 156.896C201.407 163.918 208.482 169.034 216.637 171.339" stroke="#263238" stroke-width="0.75" stroke-linecap="round" stroke-linejoin="round"/>
<path d="M201.202 174.16C204.641 174.45 208.103 174.274 211.494 173.637" stroke="#263238" stroke-width="0.75" stroke-linecap="round" stroke-linejoin="round"/>
<path d="M193.899 144.516L181.664 153.269C181.664 153.269 184.421 159.959 187.355 160.378L196.575 154.373" fill="#04BF55"/>
<path d="M193.899 144.516L181.664 153.269C181.664 153.269 184.421 159.959 187.355 160.378L196.575 154.373" stroke="#263238" stroke-linecap="round" stroke-linejoin="round"/>
<path d="M218.079 139.583C218.079 139.583 224.527 140.72 232.902 145.475C232.902 145.475 232.902 150.577 229.678 153.914L221.352 150.005" fill="#04BF55"/>
<path d="M218.079 139.583C218.079 139.583 224.527 140.72 232.902 145.475C232.902 145.475 232.902 150.577 229.678 153.914L221.352 150.005" stroke="#263238" stroke-linecap="round" stroke-linejoin="round"/>
<path d="M201.339 144.879L203.015 148.215L202.548 157.388C202.548 157.388 202.475 165.254 205.683 176.998L208.101 178.045L209.923 176.611C209.923 176.611 206.578 160.233 206.247 157.13L204.426 147.949L205.748 144.58L202.999 144.919L201.339 144.879Z" fill="#263238" stroke="#263238" stroke-linecap="round" stroke-linejoin="round"/>
<path d="M205.353 140.711C204.079 140.961 201.758 141.429 199.428 142.114C198.948 143.823 198.89 145.624 199.259 147.361C199.732 146.6 200.462 146.033 201.316 145.762C202.17 145.492 203.093 145.536 203.918 145.886C207.489 143.395 210.1 145.241 210.1 145.241C209.883 143.502 209.579 141.775 209.189 140.067C208.004 140.244 206.739 140.454 205.353 140.711Z" fill="#04BF55" stroke="#263238" stroke-width="0.75" stroke-linecap="round" stroke-linejoin="round"/>
<path d="M206.497 137.254C206.497 137.254 207.368 139.978 208.319 140.188C208.319 140.188 207.094 144.983 202.524 144.056C197.954 143.129 203.797 138.809 203.797 138.809L206.497 137.254Z" fill="white" stroke="#263238" stroke-linecap="round" stroke-linejoin="round"/>
<path d="M205.635 137.02C205.635 137.02 206.594 139.196 208.004 138.882C208.004 138.882 206.932 135.094 207.432 132.797C207.932 130.499 206.296 124.688 200.847 126.284C198.392 126.214 195.981 126.947 193.98 128.372C190.845 130.733 190.313 129 190.313 129C190.313 129 189.668 131.813 192.69 131.128C192.69 131.128 191.884 132.74 190.49 132.353C190.49 132.353 191.538 133.796 192.908 133.095C192.908 133.095 191.997 134.352 192.787 135.207C192.787 135.207 196.519 132.216 198.711 132.74C200.904 133.264 205.635 137.02 205.635 137.02Z" fill="#263238" stroke="#263238" stroke-linecap="round" stroke-linejoin="round"/>
<path d="M194.714 136.214C194.714 136.214 196.156 143.065 200.613 145.394C203.596 146.95 206.658 139.253 206.61 138.205C207.036 137.995 207.397 137.673 207.655 137.274C207.914 136.876 208.059 136.415 208.077 135.94C208.15 134.28 206.941 133.877 205.957 134.65C205.957 134.65 205.554 135.811 205.038 135.884C204.523 135.956 204.643 132.95 204.047 132.66C203.451 132.369 202.04 132.24 201.581 131.048C201.121 129.855 199.163 131.531 196.624 131.854C194.085 132.176 194.246 134.513 194.714 136.214Z" fill="white" stroke="#263238" stroke-linecap="round" stroke-linejoin="round"/>
<path d="M197.47 137.463C197.512 137.992 197.447 138.524 197.278 139.027C197.109 139.53 196.84 139.993 196.487 140.389C195.818 141.123 198.389 140.639 198.582 141.155" stroke="#263238" stroke-width="0.75" stroke-linecap="round" stroke-linejoin="round"/>
<path d="M196.18 137.431C196.269 137.778 196.18 138.092 196.067 138.124C195.955 138.156 195.729 137.907 195.648 137.56C195.568 137.213 195.648 136.891 195.761 136.859C195.874 136.827 196.1 137.076 196.18 137.431Z" fill="#263238"/>
<path d="M199.614 136.593C199.694 136.947 199.614 137.254 199.501 137.294C199.388 137.334 199.163 137.076 199.074 136.722C198.985 136.367 199.074 136.061 199.187 136.021C199.3 135.98 199.525 136.214 199.614 136.593Z" fill="#263238"/>
<path d="M201.871 140.357C201.967 141.324 199.654 141.969 199.654 141.969" stroke="#263238" stroke-width="0.75" stroke-linecap="round" stroke-linejoin="round"/>
<path d="M194.713 136.214C195.065 136.08 195.447 136.041 195.818 136.1C196.19 136.159 196.54 136.316 196.833 136.553" stroke="#263238" stroke-width="0.75" stroke-linecap="round" stroke-linejoin="round"/>
<path d="M198.155 135.964C198.155 135.964 198.695 133.885 199.888 134.691" stroke="#263238" stroke-width="0.75" stroke-linecap="round" stroke-linejoin="round"/>
<path d="M245.105 132.99C245.341 133.236 245.507 133.54 245.588 133.871C245.669 134.202 245.66 134.549 245.564 134.876" fill="white"/>
<path d="M245.105 132.99C245.341 133.236 245.507 133.54 245.588 133.871C245.669 134.202 245.66 134.549 245.564 134.876" stroke="#263238" stroke-linecap="round" stroke-linejoin="round"/>
<path d="M323.4 148.989C321.971 145.805 320.381 142.695 318.636 139.672C316.806 136.818 305.579 138.06 301.138 139.382C296.697 140.703 294.085 156.888 293.223 162.159C292.36 167.43 298.26 190.063 298.26 190.063C296.173 192.94 290.16 192.15 290.16 192.15C290.16 192.15 283.897 174.128 282.592 164.746C281.286 155.365 286.944 132.095 286.944 132.095L304.499 127.598C304.499 127.598 317.25 127.356 322.948 127.662C331.387 128.106 328.864 147.28 328.864 147.28C328.864 147.28 328.364 148.989 323.4 148.989Z" fill="#263238" stroke="#263238" stroke-linecap="round" stroke-linejoin="round"/>
<path d="M290.829 189.805C290.829 189.805 292.788 193.722 289.846 195.286C286.904 196.849 285.687 199.138 287.283 199.138H297.293C299.058 199.138 300.823 198.228 299.252 195.253C298.937 194.665 297.1 188.427 297.1 188.427L290.829 189.805Z" fill="#263238" stroke="#263238" stroke-linecap="round" stroke-linejoin="round"/>
<path d="M322.948 145.652C322.948 145.652 323.601 149.964 323.754 152.447C323.907 154.929 325.584 156.364 327.542 155.453C329.501 154.542 339.036 147.877 338.512 146.434C337.988 144.991 335.901 146.7 333.418 147.24C332.094 147.536 330.744 147.709 329.388 147.756L328.735 144.234L322.948 145.652Z" fill="#263238" stroke="#263238" stroke-linecap="round" stroke-linejoin="round"/>
<path d="M283.204 163.416C283.204 163.416 283.905 166.157 285.469 167.076" stroke="#7F7F7F" stroke-width="0.75" stroke-linecap="round" stroke-linejoin="round"/>
<path d="M293.223 138.471C293.223 138.471 299.88 136.859 299.856 137.818C299.832 138.777 295.826 140.3 295.528 141.042" stroke="#7F7F7F" stroke-width="0.75" stroke-linecap="round" stroke-linejoin="round"/>
<path d="M301.146 137.528C301.146 137.528 305.329 135.755 305.329 134.763" stroke="#7F7F7F" stroke-width="0.75" stroke-linecap="round" stroke-linejoin="round"/>
<path d="M328.848 147.256C327.166 148.205 325.305 148.796 323.383 148.989" stroke="#7F7F7F" stroke-width="0.75" stroke-linecap="round" stroke-linejoin="round"/>
<path d="M298.01 190.756C296.294 192.175 293.368 192.295 291.74 192.239" stroke="#7F7F7F" stroke-width="0.75" stroke-linecap="round" stroke-linejoin="round"/>
<path d="M298.655 91.884C298.655 91.884 300.872 83.6547 296.302 81.5591C296.302 81.5591 293.231 78.4238 287.436 81.5591C281.641 84.6945 283.849 86.7659 285.082 86.0244C285.082 86.0244 282.277 88.5472 282.995 89.337C283.712 90.1269 285.082 88.7487 285.082 88.7487C285.03 90.1655 285.394 91.5666 286.13 92.7787C287.307 94.3907 292.917 93.762 292.917 93.762L297.237 92.956L298.655 91.884Z" fill="#263238" stroke="#263238" stroke-linecap="round" stroke-linejoin="round"/>
<path d="M287.428 134.723C286.652 134.681 285.913 134.38 285.329 133.869C284.745 133.357 284.348 132.665 284.204 131.902C283.527 128.428 282.205 121.916 280.762 116.137C278.666 107.778 270.784 99.7506 291.474 96.2848C311.729 92.8834 307.142 102.032 306.885 107.512C306.667 112.002 305.579 120.408 307.336 124.672C307.66 125.415 307.717 126.248 307.497 127.028C307.276 127.809 306.792 128.488 306.127 128.952C302.435 131.459 295.504 135.174 287.428 134.723Z" fill="#999999" stroke="#263238" stroke-linecap="round" stroke-linejoin="round"/>
<path d="M282.31 109.817C284.548 112.878 287.474 115.369 290.853 117.09C294.231 118.81 297.967 119.713 301.758 119.723" stroke="#263238" stroke-width="0.75" stroke-linecap="round" stroke-linejoin="round"/>
<path d="M285.59 125.631L302.983 125.784C297.723 128.261 291.992 129.577 286.178 129.645" stroke="#263238" stroke-width="0.75" stroke-linecap="round" stroke-linejoin="round"/>
<path d="M289.161 100.46C289.161 100.46 289.967 104.313 290.773 104.707C290.773 104.707 288.814 116.588 290.386 126.711L291.055 130.564L294.045 132.071L296.519 129.194C296.519 129.194 295.939 126.502 295.713 125.607C294.577 120.424 292.377 110.519 292.489 104.651C292.489 104.651 295.222 102.491 295.028 100.621L289.161 100.46Z" fill="#04BF55" stroke="#263238" stroke-linecap="round" stroke-linejoin="round"/>
<path d="M314.122 101.411L319.37 97.1633C321.483 96.5671 323.552 95.821 325.56 94.9307C329.59 93.222 339.568 88.0877 339.568 88.0877C340.721 87.9815 341.881 87.9815 343.034 88.0877C344.533 88.2731 346.427 87.5477 346.258 86.9593C346.088 86.371 344.428 87.0964 344.106 86.9593C343.783 86.8223 345.202 83.7353 344.912 82.9293C344.622 82.1233 343.743 82.9293 343.743 82.9293C343.647 82.8098 343.527 82.7124 343.39 82.6437C343.253 82.575 343.103 82.5367 342.95 82.5313C342.797 82.526 342.644 82.5537 342.503 82.6127C342.362 82.6716 342.235 82.7604 342.131 82.8729C342.131 82.8729 341.148 82.4135 340.761 83.2679C340.672 83.1954 340.567 83.1457 340.455 83.1232C340.343 83.1006 340.227 83.1058 340.117 83.1384C340.007 83.171 339.907 83.23 339.826 83.3101C339.744 83.3903 339.683 83.4892 339.648 83.5983C339.382 84.1 339.08 84.5821 338.746 85.0411C338.746 85.0411 321.127 89.0711 317.999 91.4891L309.891 96.1074L314.122 101.411Z" fill="white" stroke="#263238" stroke-linecap="round" stroke-linejoin="round"/>
<path d="M275.499 114.984L269.663 118.208C268.062 119.711 266.352 121.093 264.545 122.343C260.983 124.914 251.424 130.765 251.424 130.765C250.737 131.697 250.138 132.69 249.634 133.732C249.014 135.11 247.418 136.351 247.015 135.884C246.612 135.416 248.079 134.392 248.143 134.046C248.208 133.699 244.831 133.32 244.242 132.651C243.654 131.983 244.855 131.652 244.855 131.652C244.799 131.506 244.776 131.349 244.788 131.193C244.799 131.037 244.845 130.886 244.922 130.749C244.999 130.613 245.105 130.495 245.233 130.405C245.361 130.314 245.507 130.253 245.661 130.225C245.661 130.225 245.782 129.145 246.709 129.258C246.709 129.258 246.604 128.452 247.571 128.452C248.137 128.493 248.705 128.493 249.272 128.452C249.272 128.452 261.861 115.492 265.561 114.073L272.968 109.31L275.499 114.984Z" fill="white" stroke="#263238" stroke-linecap="round" stroke-linejoin="round"/>
<path d="M286.638 96.1477C286.638 96.1477 285.743 102.749 286.944 104.119C286.944 104.119 288.201 100.202 291.538 102.684C291.538 102.684 296.374 99.7425 297.084 103.66C297.084 103.66 298.784 98.9365 298.696 95.3901L287.863 95.2611L286.638 96.1477Z" fill="#999999" stroke="#263238" stroke-width="0.75" stroke-linecap="round" stroke-linejoin="round"/>
<path d="M280.254 100.081L268.221 111.075C268.221 111.075 271.767 116.564 274.242 117.74C276.716 118.917 281.02 110.946 281.02 110.946" fill="#999999"/>
<path d="M280.254 100.081L268.221 111.075C268.221 111.075 271.767 116.564 274.242 117.74C276.716 118.917 281.02 110.946 281.02 110.946" stroke="#263238" stroke-linecap="round" stroke-linejoin="round"/>
<path d="M302.137 95.8012L315.638 91.6906C315.638 91.6906 317.983 96.9376 316.943 100.202C315.904 103.466 305.837 104.119 305.837 104.119" fill="#999999"/>
<path d="M302.137 95.8012L315.638 91.6906C315.638 91.6906 317.983 96.9376 316.943 100.202C315.904 103.466 305.837 104.119 305.837 104.119" stroke="#263238" stroke-linecap="round" stroke-linejoin="round"/>
<path d="M286.13 92.7545C286.13 92.7545 287.436 101.62 291.095 101.62C294.754 101.62 297.495 97.0988 297.753 96.0268C297.894 95.4963 298.004 94.9581 298.083 94.4148C298.083 94.4148 298.405 94.8017 299.058 94.4793C299.711 94.1569 299.913 90.0383 299.453 89.9738C298.954 89.9355 298.453 89.9355 297.954 89.9738C297.954 89.9738 297.954 91.9968 297.43 91.9324C296.906 91.8679 297.035 89.1194 296.713 88.797C296.39 88.4746 295.141 88.8615 294.23 88.2086C293.32 87.5558 292.465 89.0146 290.2 89.1194C287.935 89.2242 287.613 87.7492 286.976 88.4666C286.34 89.1839 286.831 92.424 286.13 92.7545Z" fill="white" stroke="#263238" stroke-linecap="round" stroke-linejoin="round"/>
<path d="M289.636 93.8426C289.361 94.7118 289.209 95.6152 289.185 96.5266C289.314 97.1955 290.974 96.4137 291.031 96.9376" stroke="#263238" stroke-width="0.75" stroke-linecap="round" stroke-linejoin="round"/>
<path d="M291.031 98.3723C291.44 98.3826 291.847 98.306 292.225 98.1477C292.603 97.9893 292.943 97.7527 293.223 97.4535" stroke="#263238" stroke-width="0.75" stroke-linecap="round" stroke-linejoin="round"/>
<path d="M288.201 94.2295C288.201 94.5599 288.056 94.8259 287.879 94.8259C287.702 94.8259 287.549 94.5599 287.549 94.2295C287.549 93.899 287.702 93.633 287.879 93.633C288.056 93.633 288.201 93.899 288.201 94.2295Z" fill="#263238"/>
<path d="M292.151 94.0441C292.151 94.3745 292.006 94.6405 291.829 94.6405C291.651 94.6405 291.498 94.3745 291.498 94.0441C291.498 93.7136 291.643 93.4476 291.829 93.4476C292.014 93.4476 292.151 93.7136 292.151 94.0441Z" fill="#263238"/>
<path d="M286.936 92.0371C286.936 92.0371 287.742 91.0538 288.846 92.8431" stroke="#263238" stroke-width="0.75" stroke-linecap="round" stroke-linejoin="round"/>
<path d="M290.748 92.8834C290.748 92.8834 292.175 91.4488 292.9 92.0774" stroke="#263238" stroke-width="0.75" stroke-linecap="round" stroke-linejoin="round"/>
<path d="M316.065 138.479L321.554 138.696" stroke="#7F7F7F" stroke-width="0.75" stroke-linecap="round" stroke-linejoin="round"/>
<path d="M325.189 128.404C326.157 129.339 326.87 130.506 327.262 131.793C327.654 133.081 327.712 134.447 327.43 135.763" stroke="#7F7F7F" stroke-width="0.75" stroke-linecap="round" stroke-linejoin="round"/>
<path d="M130.241 203.475L135.263 198.752C136.512 196.807 137.902 194.956 139.422 193.214C142.396 189.676 150.649 181.245 150.649 181.245C151.108 180.116 151.464 178.948 151.713 177.755C151.987 176.184 153.325 174.531 153.833 174.886C154.341 175.241 153.132 176.683 153.156 177.054C153.18 177.425 156.727 176.941 157.492 177.473C158.258 178.005 157.13 178.65 157.13 178.65C157.225 178.784 157.29 178.938 157.319 179.1C157.348 179.262 157.34 179.428 157.297 179.587C157.254 179.746 157.176 179.893 157.069 180.018C156.962 180.143 156.828 180.243 156.678 180.31C156.678 180.31 156.831 181.439 155.872 181.568C155.872 181.568 156.195 182.374 155.195 182.583C154.61 182.696 154.033 182.852 153.47 183.051C153.47 183.051 143.952 199.517 140.574 201.911L134.304 209.407L130.241 203.475Z" fill="#999999" stroke="#263238" stroke-linecap="round" stroke-linejoin="round"/>
<path d="M121.513 211.011C121.513 211.011 128.484 203.958 131.91 201.339C131.91 201.339 135.996 206.07 135.851 210.205C135.851 210.205 130.435 216.467 127.743 217.064" fill="white"/>
<path d="M121.513 211.011C121.513 211.011 128.484 203.958 131.91 201.339C131.91 201.339 135.996 206.07 135.851 210.205C135.851 210.205 130.435 216.467 127.743 217.064" stroke="#263238" stroke-linecap="round" stroke-linejoin="round"/>
<path d="M136.867 250.803C138.594 251.936 139.985 253.512 140.897 255.365C141.985 257.783 140.897 258.799 142.509 260.29C144.355 261.99 155.405 253.14 154.881 251.633C154.357 250.126 152.132 251.907 149.521 252.439C148.12 252.755 146.693 252.938 145.257 252.987L142.09 247.627L136.867 250.803Z" fill="#263238" stroke="#263238" stroke-linecap="round" stroke-linejoin="round"/>
<path d="M118.321 243.815C118.321 243.815 125.083 240.962 127.558 234.224C127.558 234.224 125.631 240.817 138.842 253.745C138.842 253.745 142.872 253.197 144.363 249.618C144.363 249.618 132.74 222.537 128.638 222.674C124.535 222.811 109.294 235.779 109.294 235.779C109.294 235.779 110.728 245.024 118.321 243.815Z" fill="#04BF55" stroke="#263238" stroke-linecap="round" stroke-linejoin="round"/>
<path opacity="0.2" d="M130.242 238.721C128.96 235.425 129.605 225.1 127.533 230.766C125.462 236.432 120.545 235.844 120.545 235.844L118.885 238.205L120.884 242.356C123.902 240.407 126.235 237.564 127.558 234.224C127.558 234.224 125.631 240.817 138.842 253.745C140.46 253.454 141.951 252.675 143.113 251.512C138.729 252.77 131.531 242.01 130.242 238.721Z" fill="black"/>
<path d="M128.638 228.993C128.638 228.993 127.743 229.484 127.993 232.539" stroke="#263238" stroke-width="0.75" stroke-linecap="round" stroke-linejoin="round"/>
<path d="M135.408 300.146L135.924 303.451C139.736 307.368 144.169 306.022 144.379 307.779C144.588 309.536 138.398 309.222 136.029 309.222C133.659 309.222 129.532 310.028 128.702 308.601C128.291 307.884 129.452 306.03 129.887 304.354C130.152 303.322 130.207 302.247 130.048 301.194L135.408 300.146Z" fill="#263238" stroke="#263238" stroke-linecap="round" stroke-linejoin="round"/>
<path d="M120.545 192.698C120.545 192.698 123.987 189.813 122.746 188.668C121.505 187.524 119.973 189.595 119.973 189.595C119.973 189.595 121.198 185.888 119.449 185.372C117.7 184.856 117.491 188.596 117.491 188.596C117.491 188.596 117.386 185.307 115.629 185.372C113.872 185.436 115.629 187.677 112.639 189.644C109.648 191.61 105.941 193.98 108.826 197.277C108.826 197.277 107.077 199.34 110.583 201.605C114.089 203.87 114.96 204.627 115.419 207.19L119.449 203.362L119.973 195.624L120.545 192.698Z" fill="#263238" stroke="#263238" stroke-linecap="round" stroke-linejoin="round"/>
<path d="M127.993 199.888L133.361 195.576C134.76 193.733 136.293 191.995 137.947 190.377C141.171 187.081 150.037 179.311 150.037 179.311C150.582 178.222 151.027 177.086 151.367 175.918C151.762 174.378 153.204 172.806 153.704 173.226C154.204 173.645 152.898 174.966 152.898 175.329C152.898 175.692 156.461 175.498 157.186 176.087C157.912 176.675 156.727 177.231 156.727 177.231C156.81 177.372 156.862 177.529 156.877 177.691C156.893 177.854 156.873 178.018 156.819 178.172C156.764 178.325 156.676 178.465 156.561 178.581C156.447 178.698 156.308 178.787 156.154 178.843C156.154 178.843 156.219 179.98 155.236 180.036C155.236 180.036 155.494 180.842 154.478 180.995C153.885 181.06 153.297 181.171 152.721 181.326C152.721 181.326 141.953 196.978 138.366 199.082L131.531 206.062L127.993 199.888Z" fill="#999999" stroke="#263238" stroke-linecap="round" stroke-linejoin="round"/>
<path d="M100.75 239.584C100.75 239.584 97.8645 245.491 104.603 251.408C111.341 257.324 123.713 270.929 124.535 275.33C125.357 279.73 129.21 302.419 129.21 302.419C129.21 302.419 133.611 303.652 136.464 301.452C136.464 301.452 136.738 279.626 134.4 271.018C132.063 262.409 123.528 251.843 121.069 244.943C120.758 243.495 120.572 242.023 120.513 240.543L100.75 239.584Z" fill="#04BF55" stroke="#263238" stroke-linecap="round" stroke-linejoin="round"/>
<path opacity="0.2" d="M127.952 273.403C128.355 271.114 115.443 253.011 111.341 253.011C109.68 253.011 106.916 252.205 104.619 251.399C111.357 257.315 123.713 270.913 124.535 275.305C125.357 279.698 129.21 302.395 129.21 302.395C130.279 302.66 131.381 302.771 132.482 302.726C129.073 301.92 127.541 275.692 127.952 273.403Z" fill="black"/>
<path d="M128.638 272.17C128.03 272.025 127.393 272.064 126.808 272.284C126.224 272.504 125.718 272.894 125.357 273.403" stroke="#263238" stroke-width="0.75" stroke-linecap="round" stroke-linejoin="round"/>
<path d="M121.924 193.005L123.777 196.003C123.777 196.003 126.445 196.414 126.816 197.236C127.187 198.058 125.325 198.574 125.325 198.574C125.325 198.574 127.904 201.564 127.493 202.604C127.082 203.644 123.463 205.594 123.463 205.594L115.524 206.086C115.524 206.086 116.862 203.845 116.241 202.298C116.241 202.298 113.251 202.483 113.565 199.549C113.88 196.616 115.935 198.897 115.935 198.897C116.211 198.743 116.425 198.498 116.538 198.203C116.651 197.909 116.658 197.583 116.556 197.285C116.241 196.051 117.273 195.536 117.362 194.504C117.45 193.472 120.094 190.015 121.924 193.005Z" fill="#999999" stroke="#263238" stroke-linecap="round" stroke-linejoin="round"/>
<path d="M122.851 196.019C123.068 196.39 123.068 196.825 122.851 196.906C122.633 196.986 122.302 196.825 122.085 196.454C121.867 196.084 121.867 195.648 122.085 195.568C122.302 195.487 122.641 195.657 122.851 196.019Z" fill="#263238"/>
<path d="M121.512 194.456C121.512 194.456 118.933 193.319 118.828 194.456" stroke="#263238" stroke-width="0.75" stroke-linecap="round" stroke-linejoin="round"/>
<path d="M113.573 208.754V205.53C113.573 205.53 128.081 202.306 126.204 207.489L124.704 208.754H113.573Z" fill="white" stroke="#263238" stroke-linecap="round" stroke-linejoin="round"/>
<path d="M99.6458 242.163C100.772 232.808 103.421 223.701 107.488 215.202C114.089 201.798 128.065 206.143 128.525 210.084C129.331 217.08 125.301 223.407 123.27 231.894C121.924 237.472 122.689 241.977 120.892 242.219C116.354 242.816 99.6458 242.163 99.6458 242.163Z" fill="white" stroke="#263238" stroke-linecap="round" stroke-linejoin="round"/>
<path d="M119.449 207.029C119.449 207.029 126.357 199.888 129.766 197.236C129.766 197.236 133.893 201.935 133.796 206.102C133.796 206.102 128.436 212.421 125.736 213.034" fill="white"/>
<path d="M119.449 207.029C119.449 207.029 126.357 199.888 129.766 197.236C129.766 197.236 133.893 201.935 133.796 206.102C133.796 206.102 128.436 212.421 125.736 213.034" stroke="#263238" stroke-linecap="round" stroke-linejoin="round"/>
<path d="M125.325 216.516C121.201 222.398 116.116 227.545 110.285 231.741" stroke="#263238" stroke-width="0.75" stroke-linecap="round" stroke-linejoin="round"/>
<path d="M119.361 227.05C116.127 232.134 111.617 236.281 106.279 239.076C106.36 238.915 106.432 238.753 106.513 238.584" stroke="#263238" stroke-width="0.75" stroke-linecap="round" stroke-linejoin="round"/>
<path d="M97.0505 243.726C97.5429 243.097 97.8698 242.354 98.0016 241.566C98.0742 240.535 97.7759 234.538 98.5094 234.715C99.2429 234.893 99.2026 237.536 99.2026 237.536C99.2026 237.536 101.218 232.096 101.621 232.297C102.024 232.499 101.524 234.103 101.524 234.103C101.524 234.103 102.523 232.297 102.894 232.491C103.265 232.684 102.418 235.118 102.418 235.118C102.418 235.118 103.49 233.796 103.861 233.95C104.232 234.103 102.918 237.174 102.918 237.174C102.918 237.174 104.296 235.562 104.683 235.884C105.07 236.206 103.257 238.165 102.934 239.318C102.431 240.804 101.605 242.161 100.516 243.291L99.9199 246.322L97.0505 243.726Z" fill="white" stroke="#263238" stroke-linecap="round" stroke-linejoin="round"/>
<path d="M67.0673 268.938C67.0673 268.938 69.7754 266.56 78.722 265.101C79.9922 264.904 81.168 264.312 82.083 263.409C84.09 261.418 86.919 258.782 88.4827 257.114C90.6508 254.736 91.2876 253.358 96.5427 242.13C97.6696 242.3 98.7106 242.832 99.5076 243.647C100.305 244.461 100.814 245.514 100.96 246.644C100.96 246.644 96.3251 257.775 93.762 261.354C91.1989 264.932 80.06 273.121 80.06 273.121" fill="#04BF55"/>
<path d="M67.0673 268.938C67.0673 268.938 69.7754 266.56 78.722 265.101C79.9922 264.904 81.168 264.312 82.083 263.409C84.09 261.418 86.919 258.782 88.4827 257.114C90.6508 254.736 91.2876 253.358 96.5427 242.13C97.6696 242.3 98.7106 242.832 99.5076 243.647C100.305 244.461 100.814 245.514 100.96 246.644C100.96 246.644 96.3251 257.775 93.762 261.354C91.1989 264.932 80.06 273.121 80.06 273.121" stroke="#263238" stroke-linecap="round" stroke-linejoin="round"/>
<path d="M66.084 260.217L67.9055 253.173L74.3777 255.857L73.741 261.716L66.084 260.217Z" fill="white" stroke="#263238" stroke-linecap="round" stroke-linejoin="round"/>
<path d="M66.7127 258.436C66.7127 258.436 69.1307 254.011 69.1307 252.947C69.1307 252.947 72.0403 251.464 71.5487 249.118C71.057 246.773 70.6701 245.314 70.6701 245.314L71.4761 243.968C71.4761 243.968 74.281 243.356 73.4267 241.55C72.5723 239.745 68.4617 242.259 65.6729 242.751C62.8842 243.243 59.096 244.452 60.3211 247.273L60.0471 248.006C60.0471 248.006 57.3792 254.019 66.7127 258.436Z" fill="#263238" stroke="#263238" stroke-linecap="round" stroke-linejoin="round"/>
<path d="M64.5526 262.7L65.5279 258.952C65.5279 258.952 71.8147 259.121 74.8049 261.869V264.835L64.5526 262.7Z" fill="#04BF55" stroke="#263238" stroke-linecap="round" stroke-linejoin="round"/>
<path d="M69.6303 255.018C69.6303 255.018 72.266 258.952 76.1348 257.509C78.8671 256.477 76.5136 252.673 76.5136 252.673C76.5136 252.673 77.8274 252.068 77.7709 251.319C77.7145 250.569 75.5625 248.957 75.5625 248.957C75.5625 248.957 75.1756 246.459 74.4422 245.959L71.4922 243.984C71.4922 243.984 68.2682 243.871 68.1554 244.468C68.0425 245.064 70.122 247.12 70.122 247.12C70.122 247.12 70.3316 251.504 69.7754 251.786C69.2193 252.068 67.7443 251.641 67.7443 251.641C67.7443 251.641 64.8911 250.505 65.3747 252.971C65.8583 255.437 68.51 256.219 69.6303 255.018Z" fill="white" stroke="#263238" stroke-linecap="round" stroke-linejoin="round"/>
<path d="M74.7323 249.36C74.8693 249.731 74.8532 250.086 74.7323 250.166C74.6114 250.247 74.3293 249.973 74.1923 249.602C74.0553 249.231 74.0633 248.877 74.1923 248.796C74.3213 248.715 74.5872 248.99 74.7323 249.36Z" fill="#263238"/>
<path d="M72.5964 247.789C72.7681 247.573 73.0156 247.432 73.2883 247.393C73.561 247.354 73.8382 247.42 74.0634 247.579" stroke="#263238" stroke-width="0.75" stroke-linecap="round" stroke-linejoin="round"/>
<path d="M74.958 254.027C74.958 254.027 75.9816 254.406 76.4733 253.946" stroke="#263238" stroke-width="0.75" stroke-linecap="round" stroke-linejoin="round"/>
<path d="M86.766 351.464L87.2818 354.769C91.0942 358.686 95.5272 357.348 95.7368 359.097C95.9463 360.846 89.7563 360.54 87.3786 360.54C85.0009 360.54 80.8822 361.346 80.0601 359.927C79.649 359.202 80.8097 357.348 81.2449 355.68C81.5104 354.645 81.5625 353.567 81.398 352.512L86.766 351.464Z" fill="#263238" stroke="#263238" stroke-linecap="round" stroke-linejoin="round"/>
<path d="M47.554 351.464L45.5955 354.769C49.4078 358.686 53.8408 357.348 54.0504 359.097C54.26 360.846 48.0699 360.54 45.7002 360.54C43.3306 360.54 39.2039 361.346 38.3737 359.927C37.9626 359.202 41.364 352.512 41.364 352.512L47.554 351.464Z" fill="#263238" stroke="#263238" stroke-linecap="round" stroke-linejoin="round"/>
<path d="M82.2121 293.465C82.2121 293.465 82.7601 297.825 82.2121 299.493C82.2121 299.493 90.3285 317.387 90.6025 325.366C90.6509 326.825 87.709 353.254 87.709 353.254C87.709 353.254 85.3716 355.156 80.8338 353.254C80.8338 353.254 80.0278 334.297 81.1159 326.736C81.1159 326.736 75.4739 313.034 73.8619 308.803C72.2499 304.571 71.597 295.673 71.597 295.673L82.2121 293.465Z" fill="#999999" stroke="#263238" stroke-linecap="round" stroke-linejoin="round"/>
<path opacity="0.3" d="M73.8136 308.803C75.4256 313.002 81.0676 326.736 81.0676 326.736C79.9634 334.297 80.7855 353.254 80.7855 353.254C85.3233 355.156 87.6607 353.254 87.6607 353.254C87.6607 353.254 87.7413 352.585 87.8622 351.464C87.8622 351.464 82.3975 355.124 81.8333 349.208C81.2691 343.292 83.7757 330.67 84.0659 326.986C84.3561 323.303 78.0693 316.355 79.9392 311.237C81.8091 306.119 82.1637 293.505 82.1637 293.505L71.5165 295.713C71.5165 295.713 72.1613 304.604 73.8136 308.803Z" fill="black"/>
<path d="M85.6215 325.664C85.6215 325.664 86.7096 328.163 88.4747 328.308" stroke="#263238" stroke-width="0.75" stroke-linecap="round" stroke-linejoin="round"/>
<path d="M81.0998 305.256C79.898 307.525 78.2887 309.552 76.3524 311.237" stroke="#263238" stroke-width="0.75" stroke-linecap="round" stroke-linejoin="round"/>
<path d="M81.0997 295.044C81.0997 295.044 80.068 304.329 75.3207 310.721C70.5734 317.113 66.2451 329.485 62.5375 332.378C58.8299 335.272 47.683 353.205 47.683 353.205C47.683 353.205 42.847 356.663 39.8486 352.794C39.8486 352.794 49.1338 334.023 54.9047 326.809C54.9047 326.809 60.6757 312.865 62.5375 308.803C62.5375 308.803 61.2963 303.298 65.423 296.076L81.0997 295.044Z" fill="#999999" stroke="#263238" stroke-linecap="round" stroke-linejoin="round"/>
<path opacity="0.3" d="M43.25 352.649C42.9759 347.563 51.2213 337.384 56.952 325.664C62.6826 313.945 70.1704 312.091 66.1807 311.237C65.3463 311.024 64.5718 310.622 63.9166 310.063C63.2614 309.505 62.7428 308.803 62.4005 308.013C62.4221 308.284 62.4598 308.553 62.5134 308.819C60.6515 312.849 54.8805 326.825 54.8805 326.825C49.1096 334.039 39.8245 352.81 39.8245 352.81C40.167 353.279 40.5992 353.675 41.0959 353.975C41.5926 354.275 42.1439 354.474 42.718 354.559C42.9394 354.298 43.1016 353.992 43.1934 353.663C43.2852 353.333 43.3045 352.987 43.25 352.649Z" fill="black"/>
<path d="M56.3475 327.526C56.3475 327.526 55.7269 330.516 57.6855 331.862" stroke="#263238" stroke-width="0.75" stroke-linecap="round" stroke-linejoin="round"/>
<path d="M66.6401 298.679C66.2614 298.646 65.894 298.533 65.5619 298.348C65.2297 298.163 64.9401 297.911 64.7121 297.607C64.484 297.303 64.3225 296.954 64.2381 296.583C64.1536 296.213 64.1482 295.828 64.2221 295.455C64.4257 294.504 64.4257 293.521 64.2221 292.57C62.5617 284.26 57.6532 269.14 60.8933 264.731C65.4311 258.541 74.7081 261.636 77.8193 266.173C80.6322 270.3 84.1303 286.88 84.1222 294.343C84.1174 294.919 83.9298 295.478 83.5864 295.94C83.2431 296.402 82.7618 296.743 82.212 296.914C77.1831 298.498 71.8959 299.098 66.6401 298.679Z" fill="#04BF55" stroke="#263238" stroke-linecap="round" stroke-linejoin="round"/>
<path d="M97.1794 242.606C97.7537 242.048 98.1802 241.355 98.4207 240.591C98.6302 239.584 99.1541 233.603 99.8554 233.877C100.557 234.151 100.162 236.763 100.162 236.763C100.162 236.763 102.886 231.644 103.233 231.927C103.579 232.209 102.886 233.7 102.886 233.7C102.886 233.7 104.127 232.088 104.498 232.257C104.869 232.426 103.692 234.796 103.692 234.796C103.692 234.796 104.933 233.627 105.304 233.837C105.675 234.046 103.934 236.932 103.934 236.932C103.934 236.932 105.546 235.553 105.86 235.9C106.174 236.247 104.135 237.955 103.66 239.06C102.968 240.461 101.978 241.693 100.758 242.67L99.7506 245.588L97.1794 242.606Z" fill="white" stroke="#263238" stroke-linecap="round" stroke-linejoin="round"/>
<path d="M64.0448 263.489C64.0448 263.489 67.0592 261.507 76.1348 261.281C77.4209 261.254 78.6664 260.825 79.6973 260.056C81.9541 258.355 85.1539 256.139 86.8868 254.696C89.3613 252.633 90.1834 251.351 96.9215 240.946C98.0164 241.265 98.9772 241.933 99.658 242.848C100.339 243.763 100.702 244.875 100.694 246.015C100.694 246.015 94.5841 256.413 91.5616 259.605C88.5391 262.796 76.3685 269.405 76.3685 269.405" fill="#04BF55"/>
<path d="M64.0448 263.489C64.0448 263.489 67.0592 261.507 76.1348 261.281C77.4209 261.254 78.6664 260.825 79.6973 260.056C81.9541 258.355 85.1539 256.139 86.8868 254.696C89.3613 252.633 90.1834 251.351 96.9215 240.946C98.0164 241.265 98.9772 241.933 99.658 242.848C100.339 243.763 100.702 244.875 100.694 246.015C100.694 246.015 94.5841 256.413 91.5616 259.605C88.5391 262.796 76.3685 269.405 76.3685 269.405" stroke="#263238" stroke-linecap="round" stroke-linejoin="round"/>
<path d="M77.3035 270.582C76.0244 273.843 73.7407 276.613 70.783 278.489" stroke="#263238" stroke-width="0.75" stroke-linecap="round" stroke-linejoin="round"/>
<path d="M65.9147 285.324L64.1495 294.44" stroke="#263238" stroke-width="0.75" stroke-linecap="round" stroke-linejoin="round"/>
<path d="M81.261 327.961C81.491 329.254 81.9976 330.481 82.746 331.559C83.4945 332.637 84.4671 333.541 85.5973 334.208" stroke="#263238" stroke-width="0.75" stroke-linecap="round" stroke-linejoin="round"/>
<path d="M134.739 272.098C134.441 273.863 134.151 275.628 133.852 277.385" stroke="#263238" stroke-width="0.75" stroke-linecap="round" stroke-linejoin="round"/>
<defs>
<filter id="filter0_d_657_513" x="110.26" y="164.518" width="250.558" height="213.562" filterUnits="userSpaceOnUse" color-interpolation-filters="sRGB">
<feFlood flood-opacity="0" result="BackgroundImageFix"/>
<feColorMatrix in="SourceAlpha" type="matrix" values="0 0 0 0 0 0 0 0 0 0 0 0 0 0 0 0 0 0 127 0" result="hardAlpha"/>
<feOffset dx="2"/>
<feGaussianBlur stdDeviation="2"/>
<feComposite in2="hardAlpha" operator="out"/>
<feColorMatrix type="matrix" values="0 0 0 0 0 0 0 0 0 0 0 0 0 0 0 0 0 0 0.25 0"/>
<feBlend mode="normal" in2="BackgroundImageFix" result="effect1_dropShadow_657_513"/>
<feBlend mode="normal" in="SourceGraphic" in2="effect1_dropShadow_657_513" result="shape"/>
</filter>
</defs>
</svg>
